<?xml version="1.0" encoding="UTF-8" standalone="no"?>
<!DOCTYPE svg PUBLIC "-//W3C//DTD SVG 1.0//EN" "http://www.w3.org/TR/2001/PR-SVG-20010719/DTD/svg10.dtd">
<svg width="65cm" height="33cm" viewBox="456 81 1282 645" xmlns="http://www.w3.org/2000/svg" xmlns:xlink="http://www.w3.org/1999/xlink">
  <g>
    <rect style="fill: #bae9c1" x="592" y="298" width="266.25" height="28"/>
    <rect style="fill: none; fill-opacity:0; stroke-width: 2; stroke: #000000" x="592" y="298" width="266.25" height="28"/>
    <text font-size="16" style="fill: #000000;text-anchor:middle;font-family:sans-serif;font-style:normal;font-weight:700" x="725.125" y="317">Core_Library_Export_Factory</text>
    <rect style="fill: #bae9c1" x="592" y="326" width="266.25" height="8"/>
    <rect style="fill: none; fill-opacity:0; stroke-width: 2; stroke: #000000" x="592" y="326" width="266.25" height="8"/>
    <rect style="fill: #bae9c1" x="592" y="334" width="266.25" height="8"/>
    <rect style="fill: none; fill-opacity:0; stroke-width: 2; stroke: #000000" x="592" y="334" width="266.25" height="8"/>
  </g>
  <g>
    <rect style="fill: #bae9c1" x="1401.6" y="204.4" width="287.85" height="28"/>
    <rect style="fill: none; fill-opacity:0; stroke-width: 2; stroke: #000000" x="1401.6" y="204.4" width="287.85" height="28"/>
    <text font-size="16" style="fill: #000000;text-anchor:middle;font-family:sans-serif;font-style:normal;font-weight:700" x="1545.53" y="223.4">Core_Library_Export_DtaWriter</text>
    <rect style="fill: #bae9c1" x="1401.6" y="232.4" width="287.85" height="8"/>
    <rect style="fill: none; fill-opacity:0; stroke-width: 2; stroke: #000000" x="1401.6" y="232.4" width="287.85" height="8"/>
    <rect style="fill: #bae9c1" x="1401.6" y="240.4" width="287.85" height="8"/>
    <rect style="fill: none; fill-opacity:0; stroke-width: 2; stroke: #000000" x="1401.6" y="240.4" width="287.85" height="8"/>
  </g>
  <g>
    <rect style="fill: #bae9c1" x="1403.6" y="314.8" width="287.8" height="28"/>
    <rect style="fill: none; fill-opacity:0; stroke-width: 2; stroke: #000000" x="1403.6" y="314.8" width="287.8" height="28"/>
    <text font-size="16" style="fill: #000000;text-anchor:middle;font-family:sans-serif;font-style:normal;font-weight:700" x="1547.5" y="333.8">Core_Library_Export_CsvWriter</text>
    <rect style="fill: #bae9c1" x="1403.6" y="342.8" width="287.8" height="8"/>
    <rect style="fill: none; fill-opacity:0; stroke-width: 2; stroke: #000000" x="1403.6" y="342.8" width="287.8" height="8"/>
    <rect style="fill: #bae9c1" x="1403.6" y="350.8" width="287.8" height="8"/>
    <rect style="fill: none; fill-opacity:0; stroke-width: 2; stroke: #000000" x="1403.6" y="350.8" width="287.8" height="8"/>
  </g>
  <g>
    <rect style="fill: #ffdbe1" x="1405.6" y="525.2" width="290.65" height="28"/>
    <rect style="fill: none; fill-opacity:0; stroke-width: 2; stroke: #000000" x="1405.6" y="525.2" width="290.65" height="28"/>
    <text font-size="16" style="fill: #000000;text-anchor:middle;font-family:sans-serif;font-style:normal;font-weight:700" x="1550.92" y="544.2">Core_Library_Export_OdsWriter</text>
    <rect style="fill: #ffdbe1" x="1405.6" y="553.2" width="290.65" height="8"/>
    <rect style="fill: none; fill-opacity:0; stroke-width: 2; stroke: #000000" x="1405.6" y="553.2" width="290.65" height="8"/>
    <rect style="fill: #ffdbe1" x="1405.6" y="561.2" width="290.65" height="8"/>
    <rect style="fill: none; fill-opacity:0; stroke-width: 2; stroke: #000000" x="1405.6" y="561.2" width="290.65" height="8"/>
  </g>
  <g>
    <rect style="fill: #ffdbe1" x="1406.6" y="419.6" width="283.45" height="28"/>
    <rect style="fill: none; fill-opacity:0; stroke-width: 2; stroke: #000000" x="1406.6" y="419.6" width="283.45" height="28"/>
    <text font-size="16" style="fill: #000000;text-anchor:middle;font-family:sans-serif;font-style:normal;font-weight:700" x="1548.32" y="438.6">Core_Library_Export_XlsWriter</text>
    <rect style="fill: #ffdbe1" x="1406.6" y="447.6" width="283.45" height="8"/>
    <rect style="fill: none; fill-opacity:0; stroke-width: 2; stroke: #000000" x="1406.6" y="447.6" width="283.45" height="8"/>
    <rect style="fill: #ffdbe1" x="1406.6" y="455.6" width="283.45" height="8"/>
    <rect style="fill: none; fill-opacity:0; stroke-width: 2; stroke: #000000" x="1406.6" y="455.6" width="283.45" height="8"/>
  </g>
  <g>
    <rect style="fill: #bae9c1" x="984.2" y="84.6" width="325.7" height="28"/>
    <rect style="fill: none; fill-opacity:0; stroke-width: 2; stroke: #000000" x="984.2" y="84.6" width="325.7" height="28"/>
    <text font-size="16" style="fill: #000000;text-anchor:middle;font-family:sans-serif;font-style:italic;font-weight:700" x="1147.05" y="103.6">Core_Library_Export_Builder</text>
    <rect style="fill: #bae9c1" x="984.2" y="112.6" width="325.7" height="8"/>
    <rect style="fill: none; fill-opacity:0; stroke-width: 2; stroke: #000000" x="984.2" y="112.6" width="325.7" height="8"/>
    <rect style="fill: #bae9c1" x="984.2" y="120.6" width="325.7" height="36"/>
    <rect style="fill: none; fill-opacity:0; stroke-width: 2; stroke: #000000" x="984.2" y="120.6" width="325.7" height="36"/>
    <text font-size="12.8" style="fill: #000000;text-anchor:start;font-family:monospace;font-style:italic;font-weight:700" x="987.2" y="134.6">#export()</text>
    <text font-size="12.8" style="fill: #000000;text-anchor:start;font-family:monospace;font-style:normal;font-weight:normal" x="987.2" y="150.6">+setControler($oCtrl:Core_Library_Action)</text>
  </g>
  <g>
    <rect style="fill: #bae9c1" x="515" y="153" width="347.35" height="28"/>
    <rect style="fill: none; fill-opacity:0; stroke-width: 2; stroke: #000000" x="515" y="153" width="347.35" height="28"/>
    <text font-size="16" style="fill: #000000;text-anchor:middle;font-family:sans-serif;font-style:normal;font-weight:700" x="688.675" y="172">Core_Library_Controller_Export_Index</text>
    <rect style="fill: #bae9c1" x="515" y="181" width="347.35" height="8"/>
    <rect style="fill: none; fill-opacity:0; stroke-width: 2; stroke: #000000" x="515" y="181" width="347.35" height="8"/>
    <rect style="fill: #bae9c1" x="515" y="189" width="347.35" height="8"/>
    <rect style="fill: none; fill-opacity:0; stroke-width: 2; stroke: #000000" x="515" y="189" width="347.35" height="8"/>
  </g>
  <g>
    <polyline style="fill: none; fill-opacity:0; stroke-width: 2; stroke: #000000" points="515,167 457,167 457,312 592,312 "/>
    <text font-size="12.7998" style="fill: #000000;text-anchor:start;font-family:monospace;font-style:normal;font-weight:normal" x="459" y="236.5">getBuilderFor</text>
    <polygon style="fill: #000000" points="561.1,236.5 561.1,228.5 569.1,232.5 "/>
    <text font-size="12.7998" style="fill: #000000;text-anchor:end;font-family:monospace;font-style:normal;font-weight:normal" x="511" y="164"/>
    <text font-size="12.7998" style="fill: #000000;text-anchor:end;font-family:monospace;font-style:normal;font-weight:normal" x="588" y="309"/>
  </g>
  <g>
    <polyline style="fill: none; fill-opacity:0; stroke-width: 2; stroke: #000000" points="858.25,312 936.275,312 936.275,218.4 1014.3,218.4 "/>
    <text font-size="12.7998" style="fill: #000000;text-anchor:start;font-family:monospace;font-style:normal;font-weight:normal" x="938.275" y="262.2"/>
    <polygon style="fill: #000000" points="940.275,262.2 940.275,254.2 948.275,258.2 "/>
    <text font-size="12.7998" style="fill: #000000;text-anchor:start;font-family:monospace;font-style:normal;font-weight:normal" x="862.25" y="309"/>
    <text font-size="12.7998" style="fill: #000000;text-anchor:end;font-family:monospace;font-style:normal;font-weight:normal" x="1010.3" y="215.4"/>
  </g>
  <g>
    <polyline style="fill: none; fill-opacity:0; stroke-width: 2; stroke: #000000" points="858.25,312 936.275,312 936.275,324.8 1014.3,324.8 "/>
    <text font-size="12.7998" style="fill: #000000;text-anchor:start;font-family:monospace;font-style:normal;font-weight:normal" x="938.275" y="315.4"/>
    <polygon style="fill: #000000" points="940.275,315.4 940.275,307.4 948.275,311.4 "/>
    <text font-size="12.7998" style="fill: #000000;text-anchor:start;font-family:monospace;font-style:normal;font-weight:normal" x="862.25" y="309"/>
    <text font-size="12.7998" style="fill: #000000;text-anchor:end;font-family:monospace;font-style:normal;font-weight:normal" x="1010.3" y="321.8"/>
  </g>
  <g>
    <polyline style="fill: none; fill-opacity:0; stroke-width: 2; stroke: #000000" points="858.25,312 936.275,312 936.275,426.6 1014.3,426.6 "/>
    <text font-size="12.7998" style="fill: #000000;text-anchor:start;font-family:monospace;font-style:normal;font-weight:normal" x="938.275" y="366.3"/>
    <polygon style="fill: #000000" points="940.275,366.3 940.275,358.3 948.275,362.3 "/>
    <text font-size="12.7998" style="fill: #000000;text-anchor:start;font-family:monospace;font-style:normal;font-weight:normal" x="862.25" y="309"/>
    <text font-size="12.7998" style="fill: #000000;text-anchor:end;font-family:monospace;font-style:normal;font-weight:normal" x="1010.3" y="423.6"/>
  </g>
  <g>
    <polyline style="fill: none; fill-opacity:0; stroke-width: 2; stroke: #000000" points="858.25,312 936.275,312 936.275,539.2 1014.3,539.2 "/>
    <text font-size="12.7998" style="fill: #000000;text-anchor:start;font-family:monospace;font-style:normal;font-weight:normal" x="938.275" y="422.6"/>
    <polygon style="fill: #000000" points="940.275,422.6 940.275,414.6 948.275,418.6 "/>
    <text font-size="12.7998" style="fill: #000000;text-anchor:start;font-family:monospace;font-style:normal;font-weight:normal" x="862.25" y="309"/>
    <text font-size="12.7998" style="fill: #000000;text-anchor:end;font-family:monospace;font-style:normal;font-weight:normal" x="1010.3" y="536.2"/>
  </g>
  <g>
    <rect style="fill: #bae9c1" x="1014.3" y="204.4" width="295.5" height="28"/>
    <rect style="fill: none; fill-opacity:0; stroke-width: 2; stroke: #000000" x="1014.3" y="204.4" width="295.5" height="28"/>
    <text font-size="16" style="fill: #000000;text-anchor:middle;font-family:sans-serif;font-style:normal;font-weight:700" x="1162.05" y="223.4">Core_Library_Export_DtaBuilder</text>
    <rect style="fill: #bae9c1" x="1014.3" y="232.4" width="295.5" height="8"/>
    <rect style="fill: none; fill-opacity:0; stroke-width: 2; stroke: #000000" x="1014.3" y="232.4" width="295.5" height="8"/>
    <rect style="fill: #bae9c1" x="1014.3" y="240.4" width="295.5" height="8"/>
    <rect style="fill: none; fill-opacity:0; stroke-width: 2; stroke: #000000" x="1014.3" y="240.4" width="295.5" height="8"/>
  </g>
  <g>
    <rect style="fill: #bae9c1" x="1014.3" y="310.8" width="295.45" height="28"/>
    <rect style="fill: none; fill-opacity:0; stroke-width: 2; stroke: #000000" x="1014.3" y="310.8" width="295.45" height="28"/>
    <text font-size="16" style="fill: #000000;text-anchor:middle;font-family:sans-serif;font-style:normal;font-weight:700" x="1162.03" y="329.8">Core_Library_Export_CsvBuilder</text>
    <rect style="fill: #bae9c1" x="1014.3" y="338.8" width="295.45" height="8"/>
    <rect style="fill: none; fill-opacity:0; stroke-width: 2; stroke: #000000" x="1014.3" y="338.8" width="295.45" height="8"/>
    <rect style="fill: #bae9c1" x="1014.3" y="346.8" width="295.45" height="8"/>
    <rect style="fill: none; fill-opacity:0; stroke-width: 2; stroke: #000000" x="1014.3" y="346.8" width="295.45" height="8"/>
  </g>
  <g>
    <rect style="fill: #ffdbe1" x="1014.3" y="525.2" width="298.3" height="28"/>
    <rect style="fill: none; fill-opacity:0; stroke-width: 2; stroke: #000000" x="1014.3" y="525.2" width="298.3" height="28"/>
    <text font-size="16" style="fill: #000000;text-anchor:middle;font-family:sans-serif;font-style:normal;font-weight:700" x="1163.45" y="544.2">Core_Library_Export_OdsBuilder</text>
    <rect style="fill: #ffdbe1" x="1014.3" y="553.2" width="298.3" height="8"/>
    <rect style="fill: none; fill-opacity:0; stroke-width: 2; stroke: #000000" x="1014.3" y="553.2" width="298.3" height="8"/>
    <rect style="fill: #ffdbe1" x="1014.3" y="561.2" width="298.3" height="8"/>
    <rect style="fill: none; fill-opacity:0; stroke-width: 2; stroke: #000000" x="1014.3" y="561.2" width="298.3" height="8"/>
  </g>
  <g>
    <rect style="fill: #ffdbe1" x="1014.3" y="412.6" width="291.1" height="28"/>
    <rect style="fill: none; fill-opacity:0; stroke-width: 2; stroke: #000000" x="1014.3" y="412.6" width="291.1" height="28"/>
    <text font-size="16" style="fill: #000000;text-anchor:middle;font-family:sans-serif;font-style:normal;font-weight:700" x="1159.85" y="431.6">Core_Library_Export_XlsBuilder</text>
    <rect style="fill: #ffdbe1" x="1014.3" y="440.6" width="291.1" height="8"/>
    <rect style="fill: none; fill-opacity:0; stroke-width: 2; stroke: #000000" x="1014.3" y="440.6" width="291.1" height="8"/>
    <rect style="fill: #ffdbe1" x="1014.3" y="448.6" width="291.1" height="8"/>
    <rect style="fill: none; fill-opacity:0; stroke-width: 2; stroke: #000000" x="1014.3" y="448.6" width="291.1" height="8"/>
  </g>
  <g>
    <polyline style="fill: none; fill-opacity:0; stroke-width: 2; stroke: #000000" points="1328.14,98.6 1349,98.6 1349,218.4 1309.8,218.4 "/>
    <polygon style="fill: #ffffff" points="1328.14,90.6 1312.14,98.6 1328.14,106.6 "/>
    <polygon style="fill: none; fill-opacity:0; stroke-width: 2; stroke: #000000" points="1328.14,90.6 1312.14,98.6 1328.14,106.6 "/>
  </g>
  <g>
    <polyline style="fill: none; fill-opacity:0; stroke-width: 2; stroke: #000000" points="1328.14,98.6 1349,98.6 1349,324.8 1309.75,324.8 "/>
    <polygon style="fill: #ffffff" points="1328.14,90.6 1312.14,98.6 1328.14,106.6 "/>
    <polygon style="fill: none; fill-opacity:0; stroke-width: 2; stroke: #000000" points="1328.14,90.6 1312.14,98.6 1328.14,106.6 "/>
  </g>
  <g>
    <polyline style="fill: none; fill-opacity:0; stroke-width: 2; stroke: #000000" points="1328.14,98.6 1349,98.6 1349,426.6 1305.4,426.6 "/>
    <polygon style="fill: #ffffff" points="1328.14,90.6 1312.14,98.6 1328.14,106.6 "/>
    <polygon style="fill: none; fill-opacity:0; stroke-width: 2; stroke: #000000" points="1328.14,90.6 1312.14,98.6 1328.14,106.6 "/>
  </g>
  <g>
    <polyline style="fill: none; fill-opacity:0; stroke-width: 2; stroke: #000000" points="1162.05,273.572 1162.05,283.4 1545.53,283.4 1545.53,248.4 "/>
    <polygon style="fill: #ffffff" points="1162.05,248.4 1166.85,262.4 1162.05,276.4 1157.25,262.4 "/>
    <polygon style="fill: none; fill-opacity:0; stroke-width: 2; stroke: #000000" points="1162.05,248.4 1166.85,262.4 1162.05,276.4 1157.25,262.4 "/>
    <text font-size="12.7998" style="fill: #000000;text-anchor:middle;font-family:monospace;font-style:normal;font-weight:normal" x="1353.79" y="280.4"/>
    <text font-size="12.7998" style="fill: #000000;text-anchor:start;font-family:monospace;font-style:normal;font-weight:normal" x="1173.05" y="260.4"/>
    <text font-size="12.7998" style="fill: #000000;text-anchor:start;font-family:monospace;font-style:normal;font-weight:normal" x="1549.53" y="260.4"/>
  </g>
  <g>
    <polyline style="fill: none; fill-opacity:0; stroke-width: 2; stroke: #000000" points="1162.03,379.972 1162.03,389.8 1547.5,389.8 1547.5,358.8 "/>
    <polygon style="fill: #ffffff" points="1162.03,354.8 1166.83,368.8 1162.03,382.8 1157.22,368.8 "/>
    <polygon style="fill: none; fill-opacity:0; stroke-width: 2; stroke: #000000" points="1162.03,354.8 1166.83,368.8 1162.03,382.8 1157.22,368.8 "/>
    <text font-size="12.7998" style="fill: #000000;text-anchor:middle;font-family:monospace;font-style:normal;font-weight:normal" x="1354.76" y="386.8"/>
    <text font-size="12.7998" style="fill: #000000;text-anchor:start;font-family:monospace;font-style:normal;font-weight:normal" x="1173.03" y="366.8"/>
    <text font-size="12.7998" style="fill: #000000;text-anchor:start;font-family:monospace;font-style:normal;font-weight:normal" x="1551.5" y="370.8"/>
  </g>
  <g>
    <polyline style="fill: none; fill-opacity:0; stroke-width: 2; stroke: #000000" points="1159.85,481.772 1159.85,491.6 1548.32,491.6 1548.32,463.6 "/>
    <polygon style="fill: #ffffff" points="1159.85,456.6 1164.65,470.6 1159.85,484.6 1155.05,470.6 "/>
    <polygon style="fill: none; fill-opacity:0; stroke-width: 2; stroke: #000000" points="1159.85,456.6 1164.65,470.6 1159.85,484.6 1155.05,470.6 "/>
    <text font-size="12.7998" style="fill: #000000;text-anchor:middle;font-family:monospace;font-style:normal;font-weight:normal" x="1354.09" y="488.6"/>
    <text font-size="12.7998" style="fill: #000000;text-anchor:start;font-family:monospace;font-style:normal;font-weight:normal" x="1170.85" y="468.6"/>
    <text font-size="12.7998" style="fill: #000000;text-anchor:start;font-family:monospace;font-style:normal;font-weight:normal" x="1552.32" y="475.6"/>
  </g>
  <g>
    <polyline style="fill: none; fill-opacity:0; stroke-width: 2; stroke: #000000" points="1163.45,594.372 1163.45,604.2 1550.92,604.2 1550.92,569.2 "/>
    <polygon style="fill: #ffffff" points="1163.45,569.2 1168.25,583.2 1163.45,597.2 1158.65,583.2 "/>
    <polygon style="fill: none; fill-opacity:0; stroke-width: 2; stroke: #000000" points="1163.45,569.2 1168.25,583.2 1163.45,597.2 1158.65,583.2 "/>
    <text font-size="12.7998" style="fill: #000000;text-anchor:middle;font-family:monospace;font-style:normal;font-weight:normal" x="1357.19" y="601.2"/>
    <text font-size="12.7998" style="fill: #000000;text-anchor:start;font-family:monospace;font-style:normal;font-weight:normal" x="1174.45" y="581.2"/>
    <text font-size="12.7998" style="fill: #000000;text-anchor:start;font-family:monospace;font-style:normal;font-weight:normal" x="1554.93" y="581.2"/>
  </g>
  <g>
    <polyline style="fill: none; fill-opacity:0; stroke-width: 2; stroke: #000000" points="1328.14,98.6 1349,98.6 1349,539.2 1312.6,539.2 "/>
    <polygon style="fill: #ffffff" points="1328.14,90.6 1312.14,98.6 1328.14,106.6 "/>
    <polygon style="fill: none; fill-opacity:0; stroke-width: 2; stroke: #000000" points="1328.14,90.6 1312.14,98.6 1328.14,106.6 "/>
  </g>
  <g>
    <rect style="fill: #bae9c1" x="1016.3" y="631.4" width="295.9" height="28"/>
    <rect style="fill: none; fill-opacity:0; stroke-width: 2; stroke: #000000" x="1016.3" y="631.4" width="295.9" height="28"/>
    <text font-size="16" style="fill: #000000;text-anchor:middle;font-family:sans-serif;font-style:normal;font-weight:700" x="1164.25" y="650.4">Core_Library_Export_GssBuilder</text>
    <rect style="fill: #bae9c1" x="1016.3" y="659.4" width="295.9" height="8"/>
    <rect style="fill: none; fill-opacity:0; stroke-width: 2; stroke: #000000" x="1016.3" y="659.4" width="295.9" height="8"/>
    <rect style="fill: #bae9c1" x="1016.3" y="667.4" width="295.9" height="8"/>
    <rect style="fill: none; fill-opacity:0; stroke-width: 2; stroke: #000000" x="1016.3" y="667.4" width="295.9" height="8"/>
  </g>
  <g>
    <polyline style="fill: none; fill-opacity:0; stroke-width: 2; stroke: #000000" points="1328.14,98.6 1349.22,98.6 1349.22,645.4 1312.2,645.4 "/>
    <polygon style="fill: #ffffff" points="1328.14,90.6 1312.14,98.6 1328.14,106.6 "/>
    <polygon style="fill: none; fill-opacity:0; stroke-width: 2; stroke: #000000" points="1328.14,90.6 1312.14,98.6 1328.14,106.6 "/>
  </g>
  <g>
    <polyline style="fill: none; fill-opacity:0; stroke-width: 2; stroke: #000000" points="858.25,312 936,312 936,645.4 1016.3,645.4 "/>
    <text font-size="12.7998" style="fill: #000000;text-anchor:start;font-family:monospace;font-style:normal;font-weight:normal" x="938" y="475.7"/>
    <polygon style="fill: #000000" points="940,475.7 940,467.7 948,471.7 "/>
    <text font-size="12.7998" style="fill: #000000;text-anchor:start;font-family:monospace;font-style:normal;font-weight:normal" x="862.25" y="309"/>
    <text font-size="12.7998" style="fill: #000000;text-anchor:end;font-family:monospace;font-style:normal;font-weight:normal" x="1012.3" y="642.4"/>
  </g>
  <g>
    <polyline style="fill: none; fill-opacity:0; stroke-width: 2; stroke: #000000" points="1164.25,700.572 1164.25,710.4 1736.89,710.4 1736.89,328.8 1691.4,328.8 "/>
    <polygon style="fill: #ffffff" points="1164.25,675.4 1169.05,689.4 1164.25,703.4 1159.45,689.4 "/>
    <polygon style="fill: none; fill-opacity:0; stroke-width: 2; stroke: #000000" points="1164.25,675.4 1169.05,689.4 1164.25,703.4 1159.45,689.4 "/>
    <text font-size="12.7998" style="fill: #000000;text-anchor:middle;font-family:monospace;font-style:normal;font-weight:normal" x="1450.57" y="710.4"/>
    <text font-size="12.7998" style="fill: #000000;text-anchor:start;font-family:monospace;font-style:normal;font-weight:normal" x="1175.25" y="687.4"/>
    <text font-size="12.7998" style="fill: #000000;text-anchor:start;font-family:monospace;font-style:normal;font-weight:normal" x="1695.4" y="325.8"/>
  </g>
</svg>
